<svg id="Layer_35" enable-background="new 0 0 64 64" height="512" viewBox="0 0 64 64" width="512" xmlns="http://www.w3.org/2000/svg" xmlns:xlink="http://www.w3.org/1999/xlink"><linearGradient id="SVGID_1_" gradientUnits="userSpaceOnUse" x1="32" x2="32" y1="63" y2="1"><stop offset="0" stop-color="#9f2fff"/><stop offset="1" stop-color="#0bb1d3"/></linearGradient><path d="m31 31h32v-10h-32zm30-2h-20v-6h20zm-28-6h6v6h-6zm-5 30v-2h2v2zm-4 0v-2h2v2zm-18 0h16v-2h-16c-1.654 0-3-1.346-3-3v-18c0-1.654 1.346-3 3-3h13v4.618l11.236-5.618-11.236-5.618v4.618h-13c-2.757 0-5 2.243-5 5v18c0 2.757 2.243 5 5 5zm15-29.382 4.764 2.382-4.764 2.382zm18-22.618h-32v14h32zm-2 6h-20v-4h20zm-22-4v4h-6v-4zm-6 6h6v4h-6zm8 4v-4h20v4zm32 14v-2h2v2zm6 0h-2v-2h2zm4 0h-2v-2h2zm-16-20v2h-2v-2zm11 0h-9v2h9c.552 0 1 .449 1 1v3h-4l5 6.667 5-6.667h-4v-3c0-1.654-1.346-3-3-3zm2 9.333-1-1.333h2zm-42 18.667v14h18v4.781l2.415.603-1.28 2.135 5.346 5.347 2.136-1.281.602 2.415h7.562l.603-2.416 2.136 1.281 5.346-5.347-1.28-2.135 2.414-.602v-7.562l-2.416-.603 1.281-2.134-5.346-5.347-2.136 1.281-.602-2.416h-2.781v-2zm32 15c0 .551-.448 1-1 1s-1-.449-1-1 .448-1 1-1 1 .449 1 1zm-2-3h-20v-4h20zm-3.884 2h2.069c-.113.314-.185.648-.185 1 0 1.654 1.346 3 3 3s3-1.346 3-3c0-1.302-.839-2.402-2-2.816v-2.083c2.279.465 4 2.484 4 4.899 0 2.757-2.243 5-5 5s-5-2.243-5-5c0-.334.046-.668.116-1zm3.884-8h-20v-4h20zm-22-4v4h-6v-4zm-6 6h6v4h-6zm31.219-4 .611 2.446 1.22.503 2.159-1.296 3.139 3.138-1.296 2.158.496 1.22 2.452.612v4.438l-1.949.487-.534.202-.465 1.142 1.296 2.16-3.139 3.138-2.159-1.296-1.22.503-.611 2.445h-4.438l-.611-2.446-1.22-.503-2.159 1.296-3.139-3.138 1.296-2.16-.496-1.218-2.452-.612v-3.219h4.087c-.049.332-.087.665-.087 1 0 3.86 3.141 7 7 7s7-3.14 7-7c0-3.519-2.614-6.432-6-6.92v-4.08z" fill="url(#SVGID_1_)"/></svg>