<svg id="Layer_35" enable-background="new 0 0 64 64" height="512" viewBox="0 0 64 64" width="512" xmlns="http://www.w3.org/2000/svg" xmlns:xlink="http://www.w3.org/1999/xlink"><linearGradient id="SVGID_1_" gradientUnits="userSpaceOnUse" x1="32" x2="32" y1="63" y2="1"><stop offset="0" stop-color="#9f2fff"/><stop offset="1" stop-color="#0bb1d3"/></linearGradient><path d="m51 51h-7.007c9.391-3.924 16.007-13.203 16.007-24 0-14.337-11.663-26-26-26-14.001 0-25.453 11.126-25.981 25h-3.154l7.135 8.562 7.135-8.562h-3.107c.52-9.462 8.382-17 17.972-17 9.925 0 18 8.075 18 18s-8.075 18-18 18h-7v-8h-26v26h26v-6h24v4h12v-14h-12zm-17-4c11.028 0 20-8.972 20-20s-8.972-20-20-20-20 8.972-20 20v1h.865l-2.865 3.438-2.865-3.438h.865v-1c0-13.233 10.767-24 24-24s24 10.767 24 24-10.767 24-24 24h-7v-4zm-9 14h-22v-22h22zm2-6v-2h24v2zm26-6h8v10h-8zm2 2h4v2h-4zm0 4h4v2h-4zm-48-12h-2v-2h2zm4 0h-2v-2h2zm12 0h-10v-2h10zm0 4h-18v-2h18zm0 4h-18v-2h18zm0 4h-18v-2h18zm-2 2h2v2h-2zm-4 0h2v2h-2zm-2 2h-10v-2h10zm11-32c0 6.065 4.935 11 11 11s11-4.935 11-11-4.935-11-11-11h-1v10h-10zm19.939-1h-7.939v-7.944c4.165.462 7.476 3.779 7.939 7.944zm-8.939 2h1 7.941c-.499 4.493-4.316 8-8.941 8s-8.445-3.506-8.944-8zm-15-5v1h12v-12h-1c-6.065 0-11 4.935-11 11zm10-1h-7.944c.462-4.165 3.779-7.482 7.944-7.944zm2 10h-2v-2h2zm4 0h-2v-2h2zm4 0h-2v-2h2z" fill="url(#SVGID_1_)"/></svg>